<svg width="256" height="256" viewBox="0 0 256 256" fill="none" xmlns="http://www.w3.org/2000/svg" role="img" aria-label="Zalo">
  <defs>
    <linearGradient id="bg" x1="44" y1="32" x2="212" y2="226" gradientUnits="userSpaceOnUse">
      <stop stop-color="#1D7BFF"/>
      <stop offset="1" stop-color="#0059D6"/>
    </linearGradient>
    <radialGradient id="shine" cx="0" cy="0" r="1" gradientUnits="userSpaceOnUse" gradientTransform="translate(72 58) rotate(38) scale(72 56)">
      <stop stop-color="white" stop-opacity=".28"/>
      <stop offset="1" stop-color="white" stop-opacity="0"/>
    </radialGradient>
  </defs>
  <circle cx="128" cy="128" r="128" fill="url(#bg)"/>
  <circle cx="104" cy="92" r="70" fill="url(#shine)"/>
  <path d="M70 71c0-12.15 9.85-22 22-22h72c12.15 0 22 9.85 22 22v52c0 12.15-9.85 22-22 22H128.5L92 176.5V145H92c-12.15 0-22-9.85-22-22V71Z" fill="#FFFFFF"/>
  <path d="M88 87c0-6.63 5.37-12 12-12h56c6.63 0 12 5.37 12 12v34c0 6.63-5.37 12-12 12h-26.5L113 154v-21H100c-6.63 0-12-5.37-12-12V87Z" fill="#EAF3FF"/>
  <path d="M104.5 102.2h46.8a4.4 4.4 0 0 1 4.4 4.4v25.8a4.4 4.4 0 0 1-4.4 4.4h-18L121 150v-13.2h-16.5a4.4 4.4 0 0 1-4.4-4.4v-25.8a4.4 4.4 0 0 1 4.4-4.4Z" fill="#FFFFFF"/>
  <text x="128" y="124" text-anchor="middle" fill="#0A66FF" font-family="Arial, Helvetica, sans-serif" font-size="22" font-weight="800">Zalo</text>
</svg>
