<svg width="256" height="256" viewBox="0 0 256 256" fill="none" xmlns="http://www.w3.org/2000/svg" role="img" aria-label="Zalo">
  <defs>
    <linearGradient id="bg" x1="28" y1="18" x2="224" y2="236" gradientUnits="userSpaceOnUse">
      <stop stop-color="#1E88FF"/>
      <stop offset="1" stop-color="#0A67E8"/>
    </linearGradient>
    <linearGradient id="bubbleShadow" x1="92" y1="144" x2="144" y2="196" gradientUnits="userSpaceOnUse">
      <stop stop-color="#DCEEFF"/>
      <stop offset="1" stop-color="#B8D8FF"/>
    </linearGradient>
    <filter id="shadow" x="30" y="36" width="196" height="196" filterUnits="userSpaceOnUse" color-interpolation-filters="sRGB">
      <feDropShadow dx="0" dy="8" stdDeviation="10" flood-color="#0A3E8A" flood-opacity=".18"/>
    </filter>
  </defs>

  <rect x="8" y="8" width="240" height="240" rx="56" fill="url(#bg)"/>
  <circle cx="86" cy="74" r="46" fill="#FFFFFF" fill-opacity=".12"/>

  <g filter="url(#shadow)">
    <path
      d="M73 72.5C73 59.55 83.55 49 96.5 49h63c12.95 0 23.5 10.55 23.5 23.5v51c0 12.95-10.55 23.5-23.5 23.5H126l-24.5 20.5V147H96.5C83.55 147 73 136.45 73 123.5v-51Z"
      fill="#FFFFFF"
    />
    <path
      d="M81 79.5C81 69.84 88.84 62 98.5 62h59c9.66 0 17.5 7.84 17.5 17.5v39c0 9.66-7.84 17.5-17.5 17.5h-28.2L119 152.5V136h-20.5C88.84 136 81 128.16 81 118.5v-39Z"
      fill="url(#bubbleShadow)"
    />
    <path
      d="M96 93.5c0-2.5 2.02-4.5 4.5-4.5h54c2.49 0 4.5 2.03 4.5 4.53v28.95c0 2.49-2.01 4.52-4.5 4.52H132.6L120 140.5v-13.5h-19.5a4.5 4.5 0 0 1-4.5-4.5v-29Z"
      fill="#FFFFFF"
    />
    <path
      d="M102.5 108.5h51"
      stroke="#0A67E8"
      stroke-width="1.25"
      stroke-linecap="round"
      opacity=".14"
    />
    <text
      x="128"
      y="119"
      text-anchor="middle"
      fill="#0A67E8"
      font-family="Arial, Helvetica, sans-serif"
      font-size="22"
      font-weight="800"
      letter-spacing="-0.5"
    >Zalo</text>
  </g>
</svg>
